<svg width="600" height="420" viewBox="0 0 600 420" fill="none" xmlns="http://www.w3.org/2000/svg">
  <defs>
    <linearGradient id="bg" x1="0" y1="0" x2="1" y2="1">
      <stop offset="0%" stop-color="#fdf2f7" />
      <stop offset="100%" stop-color="#eec2cf" />
    </linearGradient>
  </defs>
  <rect width="600" height="420" rx="36" fill="url(#bg)" />
  <circle cx="300" cy="130" r="40" fill="#f7dce5" />
  <path d="M260 170C240 190 230 240 240 300L200 340C240 360 270 360 300 340C330 360 360 360 400 340L360 300C370 240 360 190 340 170L300 200L260 170Z" fill="#f1b5c7" />
  <path d="M300 200L260 240L300 420L340 240L300 200Z" fill="#fbe8ee" />
  <path d="M240 300C260 320 280 330 300 340C320 330 340 320 360 300" stroke="#d9a6b6" stroke-width="8" stroke-linecap="round" />
</svg>
